<?xml version="1.0" encoding="iso-8859-1"?>
<!-- Generator: Adobe Illustrator 19.0.0, SVG Export Plug-In . SVG Version: 6.00 Build 0)  -->
<svg version="1.1" id="Capa_1" xmlns="http://www.w3.org/2000/svg" xmlns:xlink="http://www.w3.org/1999/xlink" x="0px" y="0px"
	 viewBox="0 0 492.03 492.03" style="enable-background:new 0 0 492.03 492.03;" xml:space="preserve">
<g>
	<g>
		<path d="M438.015,176v-16c0-25.629-20.141-46.377-45.43-47.74c-20.519-47.143-62.984-82.438-114.57-92.934V0h-64v19.382
			c-50.73,10.646-93.402,46.087-114.199,92.84C74.351,113.395,54.015,134.243,54.015,160v16h-32v64h36.332
			c9.137,24.098,32.156,40.615,58.062,41.24l14.977,36.186c2.668,6.446,11.469,6.498,14.614,0.271
			C164.449,281.138,202.339,256,246.015,256c43.375,0,81.054,24.788,99.652,60.938c3.176,6.172,11.926,6.081,14.582-0.331
			l14.617-35.292c26.215-0.313,49.586-16.979,58.817-41.315h36.332v-64H438.015z M230.016,204.548L230.016,204.548
			c-0.001,7.025-4.583,13.226-11.298,15.292l-91.293,28.092c-3.145,0.968-6.348,1.458-9.523,1.458
			c-15.336,0-31.886-12.251-31.886-32.043V176v-16c0-8.837,7.164-16,16-16h112c8.836,0,16,7.163,16,16V204.548z M406.015,176v41.346
			c0,19.792-16.55,32.043-31.886,32.043c-3.176,0-6.379-0.49-9.523-1.458l-91.294-28.091c-6.715-2.066-11.297-8.267-11.297-15.292
			V160c0-8.837,7.164-16,16-16h112c8.836,0,16,7.163,16,16V176z"/>
	</g>
</g>
<g>
	<g>
		<path d="M163.968,462.598l-42.855-103.475c-1.691-4.082-6.371-6.021-10.453-4.329l-44.348,18.368
			c-4.082,1.69-6.019,6.37-4.328,10.452l42.859,103.474c1.691,4.082,6.371,6.021,10.453,4.33l44.344-18.369
			C163.722,471.359,165.659,466.679,163.968,462.598z"/>
	</g>
</g>
<g>
	<g>
		<path d="M425.718,373.162l-44.348-18.368c-4.082-1.691-8.762,0.247-10.453,4.329l-42.856,103.474
			c-1.691,4.081,0.246,8.761,4.328,10.452l44.344,18.369c4.082,1.69,8.762-0.248,10.453-4.33l42.859-103.474
			C431.737,379.532,429.8,374.853,425.718,373.162z"/>
	</g>
</g>
<g>
	<g>
		<path d="M246.015,272c-53.019,0-96,42.981-96,96c0,53.019,42.981,96,96,96s96-42.981,96-96
			C342.015,314.981,299.034,272,246.015,272z M198.015,384c-8.836,0-16-7.164-16-16c0-8.837,7.164-16,16-16s16,7.163,16,16
			C214.015,376.836,206.851,384,198.015,384z M246.015,432c-8.836,0-16-7.164-16-16c0-8.837,7.164-16,16-16s16,7.163,16,16
			C262.015,424.836,254.851,432,246.015,432z M246.015,336c-8.836,0-16-7.164-16-16c0-8.837,7.164-16,16-16s16,7.163,16,16
			C262.015,328.836,254.851,336,246.015,336z M294.015,384c-8.836,0-16-7.164-16-16c0-8.837,7.164-16,16-16s16,7.163,16,16
			C310.015,376.836,302.851,384,294.015,384z"/>
	</g>
</g>
<g>
	<g>
		<path d="M152.757,160l-50.742,50.746v6.601c0,4.97,2.078,8.58,4.817,11.209L175.386,160H152.757z"/>
	</g>
</g>
<g>
	<g>
		<polygon points="198.015,160 126.558,231.458 214.015,204.548 214.015,160 		"/>
	</g>
</g>
<g>
	<g>
		<polygon points="344.757,160 294.988,209.77 312.292,215.094 367.39,160 		"/>
	</g>
</g>
<g>
	<g>
		<path d="M329.597,220.419l39.714,12.218c10.289,3.166,20.703-4.527,20.703-15.292V160L329.597,220.419z"/>
	</g>
</g>
<g>
</g>
<g>
</g>
<g>
</g>
<g>
</g>
<g>
</g>
<g>
</g>
<g>
</g>
<g>
</g>
<g>
</g>
<g>
</g>
<g>
</g>
<g>
</g>
<g>
</g>
<g>
</g>
<g>
</g>
</svg>
