<?xml version="1.0" encoding="UTF-8" standalone="no"?>
<svg
   xmlns:dc="http://purl.org/dc/elements/1.1/"
   xmlns:cc="http://creativecommons.org/ns#"
   xmlns:rdf="http://www.w3.org/1999/02/22-rdf-syntax-ns#"
   xmlns:svg="http://www.w3.org/2000/svg"
   xmlns="http://www.w3.org/2000/svg"
   xmlns:sodipodi="http://sodipodi.sourceforge.net/DTD/sodipodi-0.dtd"
   xmlns:inkscape="http://www.inkscape.org/namespaces/inkscape"
   stroke-miterlimit="10"
   font-weight="normal"
   font-style="normal"
   font-size="12"
   version="1.1"
   id="svg951"
   sodipodi:docname="thermometer.svg"
   width="38.977867"
   height="100"
   style="font-style:normal;font-weight:normal;font-size:12px;font-family:Dialog;color-interpolation:auto;fill:#000000;fill-opacity:1;stroke:#000000;stroke-width:1;stroke-linecap:square;stroke-linejoin:miter;stroke-miterlimit:10;stroke-dasharray:none;stroke-dashoffset:0;stroke-opacity:1;color-rendering:auto;image-rendering:auto;shape-rendering:auto;text-rendering:auto"
   inkscape:version="0.92.4 (5da689c313, 2019-01-14)">
  <metadata
     id="metadata955">
    <rdf:RDF>
      <cc:Work
         rdf:about="">
        <dc:format>image/svg+xml</dc:format>
        <dc:type
           rdf:resource="http://purl.org/dc/dcmitype/StillImage" />
        <dc:title></dc:title>
      </cc:Work>
    </rdf:RDF>
  </metadata>
  <sodipodi:namedview
     pagecolor="#ffffff"
     bordercolor="#666666"
     borderopacity="1"
     objecttolerance="10"
     gridtolerance="10"
     guidetolerance="10"
     inkscape:pageopacity="0"
     inkscape:pageshadow="2"
     inkscape:window-width="1695"
     inkscape:window-height="990"
     id="namedview953"
     showgrid="false"
     fit-margin-top="0"
     fit-margin-right="0"
     fit-margin-left="0"
     fit-margin-bottom="0"
     units="pt"
     inkscape:zoom="2.36"
     inkscape:cx="15.682642"
     inkscape:cy="-52.858194"
     inkscape:window-x="1990"
     inkscape:window-y="27"
     inkscape:window-maximized="0"
     inkscape:current-layer="svg951" />
  <!--Unicode Character 'THERMOMETER' (U+1F321)-->
  <defs
     id="genericDefs" />
  <g
     id="g949"
     transform="matrix(0.4378763,0,0,0.4378763,-43.472885,-71.428571)">
    <g
       id="g947">
      <path
         d="m 188.2969,349.7344 q 0,17.8594 -13.2891,29.8125 -13.289,11.9531 -31.289,11.9531 -18,0 -31.2188,-11.9531 -13.2188,-11.9531 -13.2188,-29.8125 0,-19.8282 16.4532,-32.3438 V 190.8281 q 0,-11.6719 8.2968,-19.6875 8.2969,-8.0156 19.9688,-8.0156 11.6719,0 19.7578,8.0859 8.086,8.086 8.086,19.7579 v 126.4218 q 16.4531,12.5156 16.4531,32.3438 z M 166.5,348.3281 q 0,-10.125 -8.4375,-16.5937 V 190.2656 q 0,-5.9062 -4.1484,-10.125 -4.1485,-4.2187 -10.0547,-4.2187 -5.9063,0 -10.1953,4.1484 -4.2891,4.1485 -4.2891,10.0547 v 141.6094 q -8.4375,6.3281 -8.4375,16.5937 0,9.1407 6.75,15.1875 6.75,6.0469 16.0313,6.0469 9.2812,0 16.0312,-6.0469 6.75,-6.0468 6.75,-15.1875 z m -6.1875,0 q 0,6.75 -4.9219,11.1797 -4.9218,4.4297 -11.6718,4.4297 -6.75,0 -11.6719,-4.4297 -4.9219,-4.4297 -4.9219,-11.1797 0,-7.0312 6.6094,-11.9531 v -82.4062 h 20.1094 v 82.4062 q 6.4687,4.9219 6.4687,11.9531 z"
         id="path945"
         inkscape:connector-curvature="0"
         style="stroke:none" />
    </g>
  </g>
</svg>
